<?xml version="1.0" standalone="no"?>
<!DOCTYPE svg PUBLIC "-//W3C//DTD SVG 20010904//EN"
 "http://www.w3.org/TR/2001/REC-SVG-20010904/DTD/svg10.dtd">
<svg version="1.0" xmlns="http://www.w3.org/2000/svg"
 width="1800.000000pt" height="1800.000000pt" viewBox="0 0 1800.000000 1800.000000"
 preserveAspectRatio="xMidYMid meet">
<metadata>
Created by potrace 1.14, written by Peter Selinger 2001-2017
</metadata>
<g transform="translate(0.000000,1800.000000) scale(0.100000,-0.100000)"
fill="#000000" stroke="none">
<path d="M1202 9860 l3 -1805 4405 -1 c2423 -1 4413 -2 4422 -3 14 -1 17 -11
17 -65 -1 -35 5 -75 12 -88 7 -12 10 -24 8 -24 -14 -5 68 -97 99 -110 47 -20
109 -20 141 1 5 3 12 1 16 -5 9 -15 66 -37 114 -44 49 -7 103 15 121 49 7 13
10 48 8 82 l-3 59 48 -23 c41 -20 47 -27 47 -53 0 -17 -7 -46 -14 -65 -8 -19
-12 -35 -8 -35 18 1 34 20 46 55 l13 38 23 -68 c23 -68 82 -148 118 -159 36
-12 93 -15 87 -6 -11 17 24 23 40 7 21 -22 114 -65 151 -70 37 -6 180 51 201
79 10 13 13 39 11 87 -2 41 0 66 6 64 14 -5 23 -45 21 -99 -2 -53 0 -54 50
-34 l35 15 -26 67 c-14 38 -27 71 -29 74 -2 4 3 7 12 7 15 0 63 -92 63 -122 0
-19 20 -19 46 -1 16 12 20 31 24 113 5 75 8 91 14 70 5 -16 6 -60 4 -98 -6
-78 -6 -78 76 -37 l39 20 -6 84 c-3 46 -2 84 2 84 13 0 34 -96 29 -130 -3 -17
-3 -30 -2 -30 1 0 47 20 101 45 l98 44 -1 63 c0 35 -3 80 -6 101 -4 20 -3 37
2 37 13 0 31 -72 33 -131 1 -27 4 -49 7 -49 2 0 54 25 115 55 103 50 112 57
123 91 16 52 9 200 -11 248 -17 38 -13 72 4 45 31 -48 56 -207 41 -263 -12
-41 -6 -44 43 -20 30 14 35 23 49 81 15 65 14 112 -3 155 -10 23 -10 23 -10
-4 -1 -15 -5 -29 -10 -33 -11 -6 -18 13 -26 75 -9 71 -25 111 -67 172 -41 58
-101 108 -130 108 -9 0 -20 4 -23 10 -10 16 57 -1 90 -24 24 -16 27 -17 16 -2
-18 22 -57 41 -99 50 -35 6 -163 -31 -210 -62 l-22 -14 42 -28 c45 -28 88 -72
107 -109 17 -31 4 -25 -31 15 -38 43 -145 127 -150 116 -2 -4 -32 -21 -68 -38
l-65 -31 -35 75 c-19 42 -45 96 -56 120 -15 29 -18 42 -9 38 8 -3 16 0 19 7 3
7 3 1 0 -13 l-5 -25 15 25 c9 14 15 21 16 16 0 -6 6 -1 14 10 14 19 15 19 40
-5 14 -13 45 -54 68 -90 47 -73 55 -81 74 -74 31 12 -27 159 -82 210 -21 18
-52 35 -72 39 -21 3 -54 10 -76 14 -38 8 -79 0 -90 -18 -3 -6 12 -26 34 -46
22 -20 36 -36 32 -36 -11 0 -84 75 -78 81 2 2 -25 5 -60 7 -52 3 -70 -1 -93
-17 -15 -11 -31 -18 -35 -14 -3 3 -6 2 -6 -4 0 -9 -98 -40 -112 -35 -5 1 -8
-2 -8 -7 0 -5 -8 -11 -17 -13 -13 -3 -6 -12 27 -35 76 -52 128 -111 150 -169
23 -63 25 -78 8 -68 -7 5 -9 2 -5 -8 5 -14 2 -14 -24 -1 -16 8 -29 19 -29 25
0 6 -11 26 -25 44 -14 18 -25 35 -25 39 0 20 -133 114 -162 115 -31 0 -20 -16
23 -36 54 -24 150 -120 112 -112 -5 0 -16 -2 -25 -6 -21 -9 -14 -26 10 -26 13
0 14 2 3 9 -14 9 -5 18 17 17 17 -1 68 -86 53 -87 -6 -1 -17 -2 -23 -3 -7 -1
-12 -9 -12 -19 1 -9 1 -17 -1 -17 -8 0 -79 128 -77 139 2 7 -1 10 -7 6 -6 -3
-29 11 -51 31 -35 33 -38 38 -23 49 14 11 14 12 -1 18 -22 9 -39 -1 -30 -16 4
-7 3 -8 -2 -4 -5 5 -9 14 -9 20 0 5 -6 12 -14 15 -9 3 -11 0 -5 -9 7 -12 5
-12 -9 -1 -9 8 -21 11 -27 7 -7 -4 8 -20 37 -40 27 -18 69 -55 94 -82 53 -59
111 -160 86 -150 -9 3 -18 1 -21 -6 -2 -7 -5 -4 -5 6 -1 9 -5 17 -10 17 -5 0
-7 -10 -3 -22 5 -19 4 -20 -10 -7 -9 7 -13 19 -10 24 3 6 -3 3 -13 -5 -15 -12
-17 -12 -10 -1 6 11 4 13 -9 8 -9 -4 -15 -3 -12 2 3 5 -1 11 -9 15 -8 3 -15
12 -15 20 0 8 -5 18 -12 22 -7 4 -8 3 -4 -4 5 -8 2 -10 -8 -6 -9 3 -13 10 -10
16 3 5 -3 12 -15 15 -12 3 -21 9 -21 14 0 5 -7 9 -16 9 -9 0 -12 5 -8 13 4 6
4 9 -1 5 -4 -4 -15 -2 -23 5 -13 10 -14 9 -7 -3 6 -12 5 -13 -6 -2 -20 18 -33
15 -18 -5 13 -16 12 -17 -3 -4 -10 7 -15 18 -11 24 4 6 0 8 -11 4 -11 -4 -15
-3 -11 4 4 6 13 8 21 5 7 -3 16 0 20 6 4 7 3 8 -4 4 -16 -10 -15 7 1 23 10 11
9 12 -2 6 -9 -5 -12 -4 -7 3 4 7 14 12 23 12 9 0 13 3 10 7 -4 3 -2 12 5 20 8
11 7 12 -6 7 -9 -3 -16 -10 -16 -16 0 -5 -4 -6 -10 -3 -5 3 -10 0 -10 -7 0 -9
-3 -9 -10 2 -9 15 -11 13 -14 -12 0 -6 -20 -12 -44 -13 -47 -2 -64 -12 -43
-24 7 -5 11 -14 7 -19 -4 -6 3 -16 14 -22 20 -11 21 -10 9 11 -12 23 -11 23
10 9 30 -20 28 -33 -6 -38 -15 -2 -31 -9 -35 -15 -7 -11 -13 14 -9 37 1 5 -6
3 -15 -5 -10 -8 -15 -9 -11 -2 11 17 -11 27 -28 13 -10 -8 -15 -9 -15 -2 0 6
-6 9 -14 6 -11 -4 -9 -10 8 -28 11 -12 24 -21 28 -19 11 6 68 -39 62 -48 -2
-4 -13 -6 -24 -4 -11 2 -20 0 -20 -6 0 -5 6 -9 13 -9 8 0 7 -3 -3 -10 -10 -6
-24 -3 -45 11 -49 33 -125 70 -125 62 0 -5 20 -19 45 -32 25 -13 67 -45 93
-70 50 -48 85 -90 66 -78 -11 6 -29 -19 -26 -35 3 -13 -16 -9 -21 5 -4 10 -6
10 -6 0 -1 -8 -14 -13 -33 -12 -18 0 -27 3 -20 6 17 7 -46 65 -67 60 -9 -2
-15 -9 -13 -15 4 -20 -4 -13 -33 28 -28 40 -80 80 -105 80 -7 0 12 -25 43 -56
52 -50 85 -94 73 -94 -12 0 -96 62 -96 71 0 6 -5 7 -10 4 -6 -4 -25 -2 -43 4
-50 16 -107 23 -107 13 0 -5 21 -12 46 -16 57 -7 145 -54 202 -106 23 -21 42
-41 42 -43 0 -3 -15 -5 -34 -5 -19 0 -40 -3 -46 -7 -6 -4 -31 13 -57 39 -25
25 -69 57 -98 71 -66 33 -113 27 -156 -18 -29 -30 -33 -39 -30 -66 2 -7 -2
-10 -8 -7 -5 4 -12 3 -14 -1 -3 -5 -1991 -7 -4419 -5 l-4413 2 0 1712 0 1713
7680 0 c4224 1 7685 -1 7692 -3 8 -2 11 -431 11 -1713 l1 -1709 -2138 0 -2139
0 20 55 c12 30 24 52 29 50 4 -3 6 25 4 62 -6 118 -68 243 -136 277 -40 20
-55 20 -63 0 -5 -13 -11 -12 -37 10 -17 14 -40 27 -52 27 -49 4 -98 -1 -114
-9 -14 -8 -11 -11 14 -16 51 -12 107 -81 173 -218 74 -153 93 -235 69 -303
-16 -43 -16 -43 5 -36 12 4 1017 7 2234 6 1970 0 2212 1 2213 15 5 95 2 3575
-3 3583 -6 9 -1916 12 -7783 12 l-7775 0 2 -1805z m10209 -1156 c32 -16 103
-97 124 -141 20 -41 37 -135 27 -145 -13 -13 -55 -14 -59 0 -3 8 1 10 14 5 17
-7 17 -5 3 17 -9 14 -15 35 -14 48 1 12 -4 22 -12 22 -7 0 -11 6 -8 13 3 8 -2
14 -10 14 -8 0 -12 -6 -9 -16 4 -9 -11 7 -32 34 -47 62 -96 115 -107 115 -12
0 -10 -17 5 -32 7 -7 30 -35 51 -63 34 -44 36 -50 19 -56 -10 -3 -23 -3 -29 2
-6 5 -13 6 -17 3 -3 -3 -11 4 -17 16 -10 18 -10 21 2 14 15 -9 -9 25 -27 38
-6 5 -6 8 -1 8 6 0 1 7 -10 16 -18 15 -18 15 0 10 16 -6 17 -4 6 9 -12 14 -15
14 -32 -2 -18 -16 -18 -16 -12 0 3 9 10 17 16 17 5 0 6 6 2 13 -5 7 -1 6 10
-2 16 -13 17 -13 14 1 -1 10 6 24 17 33 11 9 13 13 5 9 -13 -7 -13 -6 -1 9 15
18 33 16 82 -9z m639 -251 c23 -26 37 -49 31 -51 -10 -3 -66 53 -84 84 -18 31
14 11 53 -33z m-319 -9 c43 -22 110 -84 103 -96 -3 -5 -26 10 -50 32 -25 23
-61 48 -80 56 -19 8 -34 16 -34 19 0 10 32 4 61 -11z m637 -9 c-3 -3 -9 2 -12
12 -6 14 -5 15 5 6 7 -7 10 -15 7 -18z m-712 -36 c4 -6 3 -10 -2 -7 -44 20
-64 33 -64 40 0 11 56 -18 66 -33z m-1348 -154 c3 -3 -4 -4 -16 -2 -12 2 -24
6 -28 10 -4 3 4 4 16 2 12 -2 25 -7 28 -10z m56 -42 c11 -10 26 -25 33 -33 21
-28 4 -23 -31 8 -41 36 -96 50 -132 33 -15 -6 -23 -7 -19 -1 10 16 68 27 99
19 16 -5 38 -16 50 -26z m-23 -22 c35 -28 20 -32 -20 -4 -19 13 -27 23 -19 23
9 0 26 -9 39 -19z m-127 -7 c3 -8 2 -12 -3 -9 -5 3 -12 1 -16 -5 -9 -15 -22
-12 -29 6 -3 8 -2 12 4 9 6 -3 10 -1 10 4 0 17 27 13 34 -5z m49 1 c8 -8 17
-12 20 -9 3 3 7 1 11 -4 9 -16 -28 -9 -42 7 -8 9 -11 11 -8 4 4 -6 1 -15 -6
-19 -7 -4 -10 -4 -6 1 4 4 3 14 -3 22 -16 19 15 18 34 -2z m1702 -112 c4 -21
7 -42 7 -48 2 -70 -17 -49 -27 28 -7 64 10 82 20 20z m-1704 -106 c29 -73 32
-134 8 -158 -10 -10 -19 -22 -20 -26 0 -5 -2 -10 -5 -12 -2 -2 -1 7 2 20 17
71 15 116 -5 167 -24 61 -25 65 -10 60 7 -2 20 -25 30 -51z m287 -115 c-21
-75 -78 -120 -137 -107 -16 3 -35 14 -42 23 -11 14 -11 15 1 5 8 -7 31 -13 53
-13 50 0 92 40 108 105 7 28 15 42 19 35 4 -7 3 -28 -2 -48z m-95 -2 c-7 -28
-13 -25 -13 6 0 14 4 23 9 20 5 -3 7 -15 4 -26z m62 8 c-13 -41 -56 -78 -89
-77 l-31 1 33 9 c21 6 41 24 58 49 30 45 38 50 29 18z m725 -205 c-1 -50 -51
-93 -109 -93 -37 0 -49 15 -14 18 35 3 78 36 93 72 16 37 30 39 30 3z m-215
-53 c-3 -5 -13 -6 -21 -3 -12 4 -13 8 -3 14 15 9 32 2 24 -11z"/>
<path d="M15443 11183 c-9 -23 3 -38 33 -39 16 -1 31 -2 34 -3 3 -1 5 -46 4
-101 l0 -100 28 0 28 0 0 103 0 102 38 0 c31 0 37 3 38 23 1 26 11 24 -105 26
-67 1 -95 -2 -98 -11z"/>
<path d="M15683 11187 c-2 -4 -15 -60 -27 -125 -23 -114 -23 -117 -4 -120 36
-6 44 5 57 84 l13 79 13 -35 c7 -19 19 -56 25 -82 11 -43 15 -48 42 -48 16 0
30 6 32 13 3 6 12 43 22 80 19 75 28 73 38 -8 10 -78 14 -85 47 -85 27 0 29 2
24 33 -4 26 -11 58 -20 97 -1 3 -5 29 -9 57 -8 56 -17 67 -54 69 -27 1 -33
-10 -57 -98 -10 -37 -21 -65 -25 -63 -4 2 -17 40 -30 83 -21 77 -23 80 -52 78
-16 0 -32 -4 -35 -9z"/>
<path d="M4595 10931 c-233 -124 -214 -110 -213 -150 0 -20 -10 -58 -22 -86
-12 -27 -38 -86 -57 -130 -19 -44 -41 -93 -48 -110 -7 -16 -52 -120 -100 -230
-48 -110 -96 -220 -107 -245 -11 -25 -26 -61 -34 -80 -9 -19 -19 -44 -24 -55
-5 -11 -27 -62 -50 -114 -69 -162 -111 -219 -187 -257 l-48 -23 200 0 200 0
-55 21 c-67 25 -88 42 -98 82 -11 40 1 93 38 181 l31 70 377 -2 c207 0 387 -2
398 -2 24 -1 56 -67 78 -161 23 -102 -4 -143 -112 -171 l-67 -18 335 0 c267 0
329 3 305 12 -16 7 -40 17 -51 24 -51 29 -86 109 -404 918 -45 116 -88 224
-95 240 -24 55 -113 290 -117 307 -2 14 -13 11 -73 -21z m-25 -516 c73 -181
138 -343 145 -360 14 -33 85 -208 85 -211 0 0 -171 -1 -380 -2 -209 0 -380 3
-380 7 0 4 6 21 14 37 14 27 114 259 176 404 15 36 60 139 99 230 40 91 79
180 87 199 8 19 16 32 18 30 2 -2 63 -152 136 -334z"/>
<path d="M9501 10917 c-180 -95 -186 -99 -187 -138 0 -19 -12 -61 -26 -94 -41
-95 -163 -376 -186 -425 -11 -25 -55 -126 -97 -225 -201 -470 -233 -526 -315
-559 -22 -9 -40 -18 -40 -21 0 -3 87 -5 193 -4 143 0 186 3 167 11 -14 6 -42
17 -64 26 -54 23 -70 50 -63 115 4 47 48 168 69 192 11 13 787 13 797 0 24
-31 63 -156 64 -202 2 -75 -42 -116 -134 -128 -23 -3 -45 -7 -47 -10 -3 -3
145 -5 329 -5 l334 0 -44 20 c-76 35 -96 70 -210 360 -40 102 -79 199 -86 215
-21 50 -342 868 -351 896 l-9 26 -94 -50z m47 -612 c94 -236 174 -437 177
-447 6 -15 -24 -16 -374 -16 l-380 0 19 47 c16 40 87 205 140 326 10 22 66
152 125 288 59 136 111 244 115 240 4 -4 84 -201 178 -438z"/>
<path d="M13333 10897 c-72 -40 -135 -76 -140 -80 -4 -5 -8 -23 -9 -40 0 -28
-19 -78 -79 -212 -7 -16 -95 -219 -195 -450 -250 -578 -253 -583 -343 -635
l-52 -30 195 0 c180 1 192 2 161 15 -18 8 -39 15 -46 15 -7 0 -27 14 -45 30
-31 29 -32 33 -27 88 4 51 47 171 69 196 11 14 787 14 797 1 17 -22 60 -144
64 -182 6 -47 -13 -96 -45 -117 -13 -9 -51 -22 -83 -30 -56 -13 -38 -14 275
-15 l335 -1 -43 20 c-50 23 -73 46 -107 112 -29 56 -527 1305 -544 1365 -6 21
-12 18 -138 -50z m91 -605 c97 -243 176 -444 176 -446 0 -2 -171 -4 -381 -4
-274 1 -379 4 -376 12 7 18 237 549 252 582 19 42 115 264 126 293 6 14 13 20
18 15 4 -5 87 -208 185 -452z"/>
<path d="M15140 10938 c-30 -17 -77 -42 -105 -56 -109 -56 -124 -69 -120 -102
2 -16 -5 -46 -15 -67 -10 -21 -46 -103 -80 -183 -34 -80 -70 -163 -80 -185
-10 -23 -55 -126 -100 -230 -45 -105 -91 -212 -104 -240 -12 -27 -29 -66 -37
-84 -37 -91 -109 -229 -135 -260 -15 -19 -51 -44 -79 -57 l-50 -24 200 1 c149
0 194 3 175 11 -14 6 -42 17 -64 26 -54 23 -70 50 -63 115 4 45 46 162 68 192
10 13 786 12 798 -1 22 -25 63 -154 64 -201 1 -75 -42 -116 -134 -128 -23 -3
-45 -7 -47 -10 -3 -3 145 -5 329 -4 l334 0 -48 22 c-70 32 -98 83 -236 431
-308 776 -356 897 -385 978 l-31 86 -55 -30z m-109 -345 c33 -81 64 -157 69
-168 13 -29 230 -574 230 -579 0 -2 -171 -4 -380 -4 -209 0 -380 1 -380 2 0 5
71 171 79 187 5 8 41 92 81 185 40 93 83 192 95 219 12 28 48 110 80 183 32
73 60 130 63 128 2 -3 31 -72 63 -153z"/>
<path d="M6315 10927 c-33 -18 -93 -50 -132 -72 -70 -37 -73 -41 -72 -75 1
-31 -22 -90 -96 -255 -8 -16 -73 -167 -145 -335 -290 -672 -287 -665 -380
-712 l-55 -28 200 1 c199 1 200 1 155 17 -25 9 -55 23 -68 30 -30 17 -51 67
-45 106 4 35 38 125 63 170 l16 30 385 1 c211 0 389 -1 396 -3 19 -6 74 -158
75 -207 1 -74 -43 -116 -137 -131 -22 -3 -42 -8 -44 -10 -2 -2 146 -4 330 -3
256 1 326 4 300 12 -48 15 -95 66 -129 139 -17 35 -80 189 -140 343 -61 154
-161 406 -222 560 -62 154 -126 319 -144 367 -17 49 -35 88 -41 88 -5 -1 -37
-15 -70 -33z m-126 -233 c20 -53 115 -290 136 -339 7 -16 52 -129 100 -250 48
-121 91 -228 96 -237 5 -10 9 -20 9 -22 0 -2 -171 -4 -380 -4 -209 0 -380 3
-380 5 0 6 379 883 387 896 7 12 12 5 32 -49z"/>
<path d="M11758 10935 c-2 -1 -27 -6 -56 -9 -171 -20 -320 -116 -381 -246 -23
-49 -26 -67 -25 -160 0 -117 16 -166 77 -244 41 -52 59 -68 131 -116 50 -34
189 -96 236 -105 123 -25 290 -80 346 -114 81 -49 118 -153 95 -263 -19 -91
-43 -131 -106 -175 -127 -87 -358 -52 -497 76 -85 78 -127 161 -134 269 -2 30
-6 57 -7 58 -2 2 -44 -63 -95 -143 l-92 -147 27 -23 c73 -61 197 -120 301
-144 26 -6 56 -13 67 -15 42 -10 253 -12 308 -3 190 31 334 127 400 266 30 63
32 75 32 173 0 95 -3 110 -28 162 -71 142 -201 222 -477 294 -289 76 -385 160
-382 339 2 181 144 275 345 228 188 -43 315 -186 325 -366 l5 -78 97 148 c69
106 94 152 87 161 -17 21 -139 98 -194 120 -79 33 -187 54 -300 57 -56 2 -103
2 -105 0z"/>
<path d="M2105 10900 c3 -5 17 -10 31 -10 36 0 98 -35 110 -62 7 -15 10 -227
9 -628 -1 -333 -3 -612 -3 -621 -3 -24 -58 -75 -111 -101 l-46 -23 45 -3 c25
-2 207 -2 405 1 328 4 367 6 444 26 205 53 312 117 459 276 29 32 93 166 114
240 30 105 32 324 4 425 -62 228 -214 374 -462 445 -49 14 -125 29 -169 34
-119 13 -838 14 -830 1z m676 -34 c179 -19 324 -122 408 -289 71 -142 97 -276
95 -503 -3 -337 -102 -515 -316 -570 -89 -23 -258 -15 -353 17 l-70 24 -2 645
c-1 355 0 654 2 666 4 19 11 20 92 18 49 -1 113 -5 144 -8z"/>
<path d="M7216 10888 c-3 -13 -17 -97 -31 -188 -14 -91 -27 -177 -30 -192 -7
-41 3 -34 27 18 104 237 229 328 478 348 l55 5 -1 -658 c-2 -533 -4 -664 -15
-687 -15 -30 -65 -55 -149 -72 -32 -7 57 -10 304 -11 317 -1 411 4 294 15 -58
6 -122 39 -136 70 -9 18 -12 207 -12 684 l0 658 93 -3 c231 -9 351 -124 350
-334 0 -41 3 -58 8 -48 10 17 129 394 129 408 0 5 -274 9 -680 9 l-680 0 -4
-22z"/>
<path d="M8777 9272 c-9 -10 -23 -35 -32 -55 -15 -36 -15 -38 10 -62 23 -24
26 -25 60 -11 40 17 40 18 20 -49 -26 -82 -30 -149 -10 -165 14 -11 21 -8 54
24 21 21 45 50 52 64 8 15 26 47 41 71 16 25 28 51 28 58 0 19 -20 16 -27 -4
-22 -59 -116 -193 -135 -193 -12 0 -1 70 23 153 26 89 21 104 -26 76 -20 -12
-38 -19 -41 -16 -3 3 4 23 15 46 26 51 27 81 3 81 -11 0 -26 -8 -35 -18z m12
-54 c-12 -24 -24 -38 -26 -31 -5 15 24 73 37 73 6 0 1 -19 -11 -42z"/>
<path d="M9643 9268 c-11 -13 -25 -38 -31 -56 -10 -30 -9 -36 12 -57 24 -24
55 -25 84 -2 16 12 15 3 -3 -58 -53 -172 -10 -225 79 -98 38 55 86 141 86 156
0 23 -22 0 -45 -45 -31 -62 -101 -158 -115 -158 -15 0 -13 17 15 126 33 130
33 129 -16 104 -23 -12 -43 -19 -46 -17 -2 3 5 23 16 46 12 22 21 49 21 61 0
27 -31 26 -57 -2z m16 -50 c-12 -24 -24 -38 -26 -31 -5 15 24 73 37 73 6 0 1
-19 -11 -42z"/>
<path d="M8171 9158 c-32 -99 -40 -146 -27 -157 8 -6 23 12 50 60 22 38 41 68
42 66 2 -2 11 -46 13 -69 1 -5 10 -8 21 -8 14 0 27 14 42 48 18 37 24 42 26
26 5 -32 36 -57 62 -49 25 8 90 63 90 76 0 16 -16 10 -41 -15 -57 -55 -89 -51
-89 12 0 51 -29 38 -62 -28 -28 -56 -30 -55 -32 15 -1 57 -23 52 -63 -15 -18
-30 -33 -53 -33 -50 0 3 9 34 20 70 23 74 23 80 11 80 -5 0 -19 -28 -30 -62z"/>
<path d="M8550 9213 c-22 -9 -43 -41 -62 -94 -14 -41 -14 -50 -2 -66 13 -17
16 -16 49 20 19 20 37 37 40 37 3 0 5 -11 5 -25 0 -14 11 -37 25 -51 24 -24
28 -25 48 -11 26 17 87 103 87 123 0 25 -19 15 -34 -18 -15 -36 -59 -88 -75
-88 -14 0 -22 16 -27 53 -3 18 -7 43 -10 56 l-5 25 -22 -27 c-12 -15 -30 -38
-40 -52 -25 -35 -31 -26 -16 25 15 50 55 86 76 69 18 -16 29 -3 13 16 -13 16
-25 17 -50 8z"/>
<path d="M9406 9199 c-30 -24 -56 -79 -56 -120 0 -46 20 -46 60 0 l37 42 6
-39 c9 -53 34 -75 67 -59 26 13 90 102 90 124 0 25 -15 12 -45 -38 -52 -88
-84 -88 -93 0 -3 30 -9 51 -16 51 -7 0 -28 -21 -46 -46 -41 -54 -51 -42 -18
24 21 42 26 47 56 46 36 -2 42 10 13 26 -25 13 -24 13 -55 -11z"/>
<path d="M9021 9182 c-12 -29 -31 -123 -31 -153 0 -10 7 -25 16 -33 20 -20 46
-8 70 34 19 31 34 31 34 0 0 -10 7 -20 15 -23 18 -8 52 34 67 84 13 44 14 45
34 24 22 -22 67 -18 100 7 16 12 31 23 33 24 1 2 0 8 -4 14 -4 7 -17 2 -37
-15 -16 -14 -34 -25 -39 -25 -22 0 -50 22 -59 46 -14 35 -27 30 -35 -13 -7
-41 -43 -129 -49 -122 -3 2 -6 19 -8 38 -2 19 -9 36 -15 38 -6 2 -25 -19 -43
-47 -18 -28 -38 -49 -44 -47 -14 5 -9 76 9 139 15 52 4 75 -14 30z"/>
<path d="M8230 8720 c-10 -6 -15 -26 -15 -57 0 -40 -3 -48 -17 -47 -23 2 -23
-5 -1 -21 14 -10 18 -29 19 -87 0 -42 -4 -76 -10 -80 -44 -30 -106 27 -106 97
0 35 5 48 26 64 30 23 22 27 -14 7 -41 -22 -60 -62 -52 -108 12 -62 61 -93
123 -76 16 4 38 3 51 -2 l22 -8 0 158 c-1 87 -4 161 -6 164 -3 3 -12 1 -20 -4z"/>
<path d="M9763 8714 c-32 -14 -45 -26 -21 -21 7 1 12 -13 12 -38 0 -35 -3 -40
-22 -41 -30 -2 -42 -14 -13 -14 26 0 31 -10 34 -82 4 -73 -5 -98 -37 -98 -28
0 -75 45 -77 72 -1 10 -2 24 -3 31 -4 25 16 65 37 76 21 11 21 11 -3 5 -30 -7
-70 -48 -71 -75 -1 -10 -2 -25 -3 -31 -3 -21 23 -67 43 -78 10 -5 50 -9 87 -8
l69 1 0 158 c0 88 0 159 0 158 0 0 -15 -7 -32 -15z"/>
<path d="M7423 8702 c-20 -3 -22 -6 -11 -25 7 -12 13 -28 14 -36 2 -8 7 -17
12 -20 5 -3 33 -53 61 -110 l52 -103 28 58 c15 33 41 93 57 134 l29 75 3 -124
c2 -93 -1 -126 -10 -133 -8 -4 8 -7 37 -7 28 1 42 3 33 6 -16 4 -18 19 -18
135 0 111 3 133 17 143 14 10 10 11 -22 6 -40 -6 -40 -7 -84 -114 -25 -59 -48
-107 -52 -107 -4 0 -26 39 -49 86 -60 124 -71 140 -97 136z"/>
<path d="M8720 8703 l-35 -4 3 -136 c2 -104 0 -138 -10 -144 -8 -6 3 -9 30 -9
37 0 42 2 34 18 -14 29 -8 247 7 266 7 9 12 15 10 14 -2 -1 -20 -3 -39 -5z"/>
<path d="M9883 8703 c-7 -3 -13 -13 -13 -24 0 -23 35 -26 43 -5 7 17 -13 35
-30 29z"/>
<path d="M9191 8693 c14 -3 17 -23 18 -133 1 -113 -1 -130 -16 -139 -14 -8 -7
-10 32 -10 28 0 44 3 38 6 -10 3 -13 41 -13 138 0 97 3 135 13 138 6 3 -10 5
-38 5 -27 0 -43 -2 -34 -5z"/>
<path d="M11564 8631 c0 -9 8 -17 17 -17 9 0 15 6 12 12 -7 20 -29 23 -29 5z"/>
<path d="M11090 8619 c0 -5 5 -7 10 -4 6 3 10 8 10 11 0 2 -4 4 -10 4 -5 0
-10 -5 -10 -11z"/>
<path d="M7893 8608 c-3 -6 -2 -8 4 -5 6 4 19 0 29 -8 16 -11 19 -27 19 -97 0
-76 2 -83 21 -86 20 -3 21 1 20 93 0 106 7 95 -68 110 -10 2 -21 -2 -25 -7z"/>
<path d="M8436 8604 c39 -27 46 -37 40 -59 -5 -19 -3 -22 13 -18 50 13 25 75
-34 84 -34 6 -37 5 -19 -7z"/>
<path d="M9340 8609 c-14 -4 -20 -7 -14 -8 8 -1 11 -32 10 -96 l-2 -95 29 0
c19 0 26 4 21 12 -4 6 -8 42 -9 79 -1 67 -1 67 32 83 64 30 88 -4 81 -113 -3
-61 -3 -61 25 -61 17 0 26 4 22 11 -4 6 -8 43 -8 83 -1 45 -7 79 -16 89 -17
21 -67 22 -103 3 -24 -13 -28 -13 -28 -1 0 19 -11 23 -40 14z"/>
<path d="M9883 8611 c-14 -4 -20 -10 -15 -18 4 -6 6 -50 5 -97 l-2 -86 31 0
c23 0 28 3 20 13 -5 6 -9 47 -8 89 2 93 -2 106 -31 99z"/>
<path d="M10113 8597 c26 -21 27 -26 25 -97 -3 -73 -4 -75 -29 -78 -62 -7
-108 82 -76 147 23 45 -3 39 -36 -9 -22 -31 -22 -74 0 -110 15 -27 54 -47 78
-41 6 2 34 3 62 3 29 0 50 5 47 9 -3 5 -6 48 -6 95 0 91 0 90 -57 98 l-35 5
27 -22z"/>
<path d="M7424 8556 c1 -30 3 -57 6 -60 3 -2 5 20 5 49 -1 30 -3 56 -6 59 -3
3 -5 -19 -5 -48z"/>
<path d="M7838 8594 c-15 -8 -32 -23 -38 -34 -16 -30 -12 -95 8 -119 21 -26
68 -40 102 -30 l25 7 -27 1 c-69 3 -107 127 -52 170 31 24 21 27 -18 5z"/>
<path d="M8371 8594 c-27 -19 -51 -72 -46 -100 2 -10 4 -23 4 -27 1 -4 13 -19
27 -32 19 -18 38 -25 66 -25 35 0 98 23 98 36 0 2 -9 0 -19 -6 -31 -16 -86
-12 -104 8 -25 27 -38 70 -24 76 9 3 9 5 0 5 -17 1 1 51 24 69 25 18 1 15 -26
-4z"/>
<path d="M8817 8598 c5 -7 8 -52 7 -100 -1 -84 0 -88 20 -88 21 0 22 4 20 79
-2 79 -1 80 28 94 37 18 67 11 77 -17 4 -11 7 -51 6 -88 -2 -64 0 -68 21 -68
22 0 22 3 19 85 -1 49 -8 91 -15 100 -16 19 -80 19 -106 0 -25 -19 -35 -19
-28 0 5 11 -2 15 -26 15 -24 0 -30 -3 -23 -12z"/>
<path d="M8430 8532 c0 -5 7 -9 15 -9 8 0 12 4 9 9 -3 4 -9 8 -15 8 -5 0 -9
-4 -9 -8z"/>
<path d="M7424 8463 c-3 -10 -10 -26 -15 -35 -8 -15 -5 -18 21 -18 30 0 30 0
14 25 -8 13 -13 29 -9 35 3 5 4 10 0 10 -3 0 -8 -8 -11 -17z"/>
<path d="M11185 8410 c3 -5 8 -10 11 -10 2 0 4 5 4 10 0 6 -5 10 -11 10 -5 0
-7 -4 -4 -10z"/>
</g>
</svg>
