<?xml version="1.0" standalone="no"?>
<!DOCTYPE svg PUBLIC "-//W3C//DTD SVG 20010904//EN"
 "http://www.w3.org/TR/2001/REC-SVG-20010904/DTD/svg10.dtd">
<svg version="1.0" xmlns="http://www.w3.org/2000/svg"
 width="1800.000000pt" height="1200.000000pt" viewBox="0 0 1800.000000 1200.000000"
 preserveAspectRatio="xMidYMid meet">

<g transform="translate(0.000000,1200.000000) scale(0.100000,-0.100000)"
fill="#000000" stroke="none">
<path d="M1200 6860 l0 -1800 4423 0 4422 0 21 45 21 45 -4399 0 -4398 0 2
1713 3 1712 7693 3 7692 2 0 -1715 0 -1715 -2140 0 c-2113 0 -2141 0 -2130 19
19 37 12 142 -15 199 -32 69 -105 173 -116 166 -5 -3 -9 1 -9 10 0 8 -19 31
-42 50 -36 31 -48 36 -94 36 -80 0 -92 -9 -44 -32 53 -27 96 -88 165 -236 62
-134 79 -218 56 -282 -9 -28 -9 -31 5 -26 9 3 1012 6 2230 6 l2214 0 0 1800 0
1800 -7780 0 -7780 0 0 -1800z"/>
<path d="M15440 8171 c0 -16 8 -20 38 -23 l37 -3 3 -102 c3 -102 3 -103 27
-103 25 0 25 0 25 105 l0 105 35 0 c28 0 35 4 35 20 0 19 -7 20 -100 20 -92 0
-100 -1 -100 -19z"/>
<path d="M15658 8065 l-25 -125 28 0 c31 0 30 -1 49 104 5 33 12 61 14 63 2 2
14 -35 27 -82 22 -79 25 -85 50 -85 25 0 28 6 50 85 13 46 26 79 30 72 3 -6
12 -45 18 -84 13 -71 13 -73 43 -73 23 0 28 4 24 18 -2 9 -12 55 -21 102 -26
140 -22 130 -59 130 -33 0 -33 0 -56 -84 -13 -47 -27 -83 -31 -80 -4 2 -10 16
-14 31 -3 16 -13 52 -21 81 -15 49 -17 52 -48 52 l-33 0 -25 -125z"/>
<path d="M4524 7891 c-154 -85 -147 -79 -140 -106 4 -17 -59 -175 -224 -555
-306 -706 -307 -707 -399 -755 l-46 -24 190 0 190 0 -49 19 c-60 23 -93 53
-101 91 -7 33 13 110 51 192 l25 57 394 0 c302 0 395 -3 402 -12 25 -33 65
-157 66 -205 2 -76 -30 -106 -133 -129 -47 -11 -7 -12 280 -13 295 0 330 1
297 14 -51 18 -79 45 -115 113 -36 67 -542 1344 -542 1367 0 24 -17 18 -146
-54z m95 -589 c100 -248 181 -454 181 -457 0 -3 -171 -5 -380 -5 -209 0 -380
4 -380 8 0 5 84 202 186 438 102 236 190 440 195 453 5 13 11 22 13 20 2 -2
86 -208 185 -457z"/>
<path d="M6254 7891 c-154 -85 -147 -79 -140 -106 4 -17 -59 -175 -224 -555
-306 -706 -307 -707 -399 -755 l-46 -24 190 0 190 0 -49 19 c-60 23 -93 53
-101 91 -7 33 13 110 51 192 l26 57 396 -2 397 -3 14 -29 c55 -116 70 -219 36
-257 -28 -29 -52 -41 -115 -55 -47 -11 -7 -12 280 -13 295 0 330 1 297 14 -51
18 -79 45 -115 113 -35 66 -542 1345 -542 1367 0 24 -17 17 -146 -54z m95
-588 c100 -249 181 -455 181 -458 0 -3 -171 -5 -380 -5 -216 0 -380 4 -380 9
0 5 84 202 186 437 102 236 190 440 195 453 5 13 11 22 13 20 2 -2 85 -208
185 -456z"/>
<path d="M9453 7889 c-127 -69 -133 -73 -133 -103 0 -31 -465 -1116 -514
-1199 -31 -53 -71 -91 -121 -116 l-40 -20 195 0 195 0 -55 19 c-30 10 -65 31
-78 46 -21 24 -24 36 -20 83 3 32 19 90 37 134 l33 77 398 0 399 0 29 -77 c51
-132 53 -182 9 -224 -25 -24 -56 -37 -112 -49 -24 -4 95 -8 290 -8 182 0 318
3 304 8 -44 13 -77 40 -108 88 -26 42 -540 1320 -557 1386 -3 14 -9 26 -13 26
-3 0 -66 -32 -138 -71z m97 -584 c95 -236 175 -438 177 -447 5 -17 -18 -18
-376 -18 -209 0 -381 3 -381 6 0 3 89 211 197 461 117 270 200 449 204 441 4
-7 85 -206 179 -443z"/>
<path d="M13323 7889 c-128 -68 -133 -72 -133 -102 0 -33 -463 -1115 -513
-1200 -32 -53 -72 -91 -122 -116 l-40 -20 195 0 195 0 -55 19 c-30 10 -65 31
-78 46 -21 24 -24 36 -20 83 3 32 19 90 37 134 l33 77 398 0 399 0 29 -77 c51
-132 53 -182 9 -224 -25 -24 -56 -37 -112 -49 -24 -4 96 -8 290 -8 221 0 319
3 298 9 -44 13 -95 66 -127 131 -29 61 -522 1305 -532 1343 -3 14 -9 25 -13
25 -3 0 -66 -32 -138 -71z m97 -584 c95 -236 175 -438 177 -447 5 -17 -18 -18
-376 -18 -209 0 -381 3 -381 6 0 3 89 210 197 461 119 275 199 449 204 441 4
-7 85 -206 179 -443z"/>
<path d="M15053 7889 c-127 -69 -133 -73 -133 -103 0 -31 -465 -1116 -514
-1199 -31 -53 -71 -91 -121 -116 l-40 -20 195 0 195 0 -55 19 c-30 10 -65 31
-78 46 -21 24 -24 36 -20 83 3 32 19 90 37 134 l33 77 398 0 399 0 29 -77 c51
-132 53 -182 9 -224 -25 -24 -56 -37 -112 -49 -24 -4 95 -8 290 -8 182 0 318
3 304 8 -44 13 -77 40 -108 88 -26 42 -540 1320 -557 1386 -3 14 -9 26 -13 26
-3 0 -66 -32 -138 -71z m97 -584 c95 -236 175 -438 177 -447 5 -17 -18 -18
-376 -18 -209 0 -381 3 -381 6 0 3 89 211 197 461 117 270 200 449 204 441 4
-7 85 -206 179 -443z"/>
<path d="M11755 7929 c-208 -16 -359 -103 -429 -249 -28 -59 -31 -74 -31 -161
0 -90 2 -99 38 -171 76 -154 222 -245 515 -318 265 -66 350 -143 340 -308 -10
-190 -148 -293 -353 -264 -214 31 -376 187 -392 380 l-6 71 -89 -141 c-49 -77
-87 -147 -84 -154 8 -22 86 -75 161 -109 289 -133 663 -100 839 73 91 89 132
199 124 324 -14 190 -167 330 -443 404 -320 86 -402 136 -441 273 -31 103 9
236 84 286 109 72 311 47 437 -54 92 -75 144 -176 146 -288 1 -35 3 -63 4 -63
6 0 185 281 185 289 0 16 -146 108 -207 131 -117 44 -248 60 -398 49z"/>
<path d="M2155 7890 c34 -11 70 -30 83 -45 l22 -26 0 -618 0 -618 -23 -34
c-12 -18 -47 -46 -77 -62 -30 -15 -57 -31 -60 -34 -3 -2 175 -3 395 0 427 5
451 7 607 62 211 74 381 241 443 436 72 228 51 467 -56 645 -66 109 -196 206
-339 253 -150 49 -192 52 -635 57 l-420 3 60 -19z m698 -35 c218 -57 355 -221
414 -495 27 -127 24 -425 -5 -533 -43 -157 -113 -252 -226 -304 -58 -27 -68
-28 -206 -28 -126 0 -155 3 -217 24 l-73 24 0 670 0 670 128 -6 c70 -4 153
-13 185 -22z"/>
<path d="M7220 7904 c0 -3 -13 -89 -30 -191 -16 -101 -30 -192 -30 -201 0 -9
22 22 48 71 108 199 232 283 432 289 l75 3 0 -660 c0 -613 -1 -663 -17 -688
-23 -34 -43 -44 -120 -61 -58 -13 -34 -14 282 -14 190 0 336 2 325 5 -11 2
-43 9 -72 14 -34 7 -63 20 -83 39 l-30 28 0 673 0 672 98 -6 c222 -13 327
-106 349 -306 l8 -73 59 188 c32 104 61 197 63 207 5 16 -32 17 -676 17 -374
0 -681 -3 -681 -6z"/>
<path d="M8787 6279 c-21 -12 -47 -61 -47 -88 0 -24 -76 -140 -97 -148 -21 -8
-43 23 -43 61 0 17 -5 38 -10 46 -8 13 -12 11 -26 -8 -9 -13 -27 -35 -40 -50
-19 -22 -23 -24 -24 -9 0 27 25 80 48 101 18 16 24 17 37 6 16 -14 31 -8 21 8
-11 18 -45 20 -66 5 -27 -19 -59 -88 -60 -125 0 -41 31 -36 66 9 l28 36 10
-43 c22 -86 76 -77 131 23 19 33 36 54 39 48 9 -14 52 -14 78 0 19 10 20 9 15
-12 -3 -13 -13 -58 -23 -100 -9 -42 -14 -84 -11 -93 10 -24 40 -19 70 12 25
26 117 178 117 194 0 23 -19 1 -50 -58 -36 -68 -94 -144 -111 -144 -15 0 -10
40 16 139 14 52 23 97 20 100 -4 3 -20 -2 -36 -12 -52 -29 -58 -22 -31 33 32
64 23 94 -21 69z m-1 -66 c-22 -41 -25 -44 -26 -22 0 25 37 85 47 76 2 -3 -7
-27 -21 -54z"/>
<path d="M9657 6279 c-21 -12 -47 -61 -47 -88 0 -24 -76 -140 -97 -148 -21 -8
-43 23 -43 61 0 17 -5 38 -10 46 -8 13 -12 11 -26 -8 -9 -13 -27 -35 -40 -50
-19 -22 -23 -24 -24 -9 0 27 25 80 48 101 18 16 24 17 37 6 16 -14 31 -8 21 8
-11 18 -45 20 -66 5 -27 -19 -59 -88 -60 -125 0 -41 31 -36 66 9 l28 36 10
-43 c22 -86 76 -77 131 23 19 33 36 54 39 48 9 -14 52 -14 78 0 19 10 20 9 15
-12 -3 -13 -13 -58 -23 -100 -9 -42 -14 -84 -11 -93 10 -24 40 -19 70 12 25
26 117 178 117 194 0 23 -19 1 -50 -58 -36 -68 -94 -144 -111 -144 -15 0 -10
40 16 139 14 52 23 97 20 100 -4 3 -20 -2 -36 -12 -52 -29 -58 -22 -31 33 32
64 23 94 -21 69z m-1 -66 c-22 -41 -25 -44 -26 -22 0 25 37 85 47 76 2 -3 -7
-27 -21 -54z"/>
<path d="M8192 6203 c-16 -30 -52 -154 -52 -179 0 -36 17 -29 41 19 12 23 29
53 37 66 l16 23 11 -38 c15 -55 36 -54 64 3 l23 47 13 -30 c7 -17 19 -34 27
-37 19 -7 70 18 99 49 37 39 13 40 -31 0 -22 -20 -44 -36 -48 -36 -18 0 -32
26 -32 57 0 51 -26 41 -57 -21 -15 -30 -30 -53 -35 -50 -4 3 -8 27 -8 55 0 27
-4 49 -8 49 -4 0 -24 -24 -42 -54 -19 -30 -36 -53 -38 -51 -2 2 6 34 18 70 21
64 22 97 2 58z"/>
<path d="M9015 6156 c-20 -69 -24 -141 -8 -157 16 -16 45 -3 68 31 23 35 35
38 35 10 0 -25 25 -36 45 -20 8 7 22 36 31 65 l17 53 28 -20 c33 -25 66 -19
106 18 31 28 26 28 -30 -1 -42 -21 -63 -15 -83 24 -17 33 -26 27 -44 -31 -24
-77 -40 -104 -51 -87 -5 8 -9 26 -9 42 0 39 -10 34 -48 -24 -54 -83 -75 -54
-46 67 20 88 12 110 -11 30z"/>
<path d="M11305 5770 c-4 -6 7 -10 27 -10 36 0 111 -31 123 -50 4 -6 -11 -2
-34 9 -45 23 -76 27 -87 9 -4 -7 -3 -8 5 -4 21 14 61 -3 106 -45 61 -57 103
-126 117 -194 10 -53 10 -59 -7 -71 -34 -25 -50 -17 -69 36 -18 51 -97 171
-135 204 -41 37 -32 7 15 -50 45 -55 114 -184 114 -211 0 -8 -11 -18 -25 -25
l-24 -11 40 -26 c83 -52 263 -296 284 -383 11 -45 -11 -32 -29 16 -15 40 -89
163 -105 176 -3 3 -26 31 -50 63 -59 77 -128 137 -158 137 -13 0 -37 -7 -54
-16 l-30 -15 73 -48 c89 -58 177 -149 212 -219 40 -78 76 -199 76 -252 l0 -48
100 46 101 47 -7 80 c-9 106 -41 214 -88 298 -39 71 -129 167 -178 193 -27 14
-38 34 -19 34 5 0 36 -20 69 -45 65 -49 125 -122 166 -202 33 -65 73 -203 82
-281 l6 -61 113 56 113 57 12 58 c15 70 7 158 -22 237 -22 60 -93 174 -127
205 -24 22 -27 36 -7 36 15 0 82 -83 119 -148 15 -27 27 -39 30 -30 2 7 5 2 5
-12 0 -14 10 -59 22 -100 16 -57 20 -92 17 -147 -3 -40 -4 -73 -2 -73 3 0 20
7 38 16 29 14 36 24 46 66 12 56 13 130 1 168 -8 23 -8 23 -9 -8 -2 -61 -25
-29 -39 53 -7 44 -20 95 -30 114 -25 55 -122 149 -160 157 -18 4 -32 10 -32
15 0 12 23 11 57 -2 22 -8 25 -8 16 2 -7 7 -36 14 -65 17 -43 3 -69 -2 -133
-28 -83 -33 -112 -50 -83 -50 9 0 43 -25 76 -55 64 -59 106 -136 118 -215 9
-61 -8 -41 -30 35 -23 79 -58 128 -133 187 l-62 49 -41 -21 -42 -21 41 -21
c80 -39 173 -167 216 -293 23 -69 35 -138 28 -163 -10 -39 -21 -23 -28 41 -13
114 -68 244 -137 323 -44 50 -144 107 -167 94 -16 -8 -25 5 -74 109 -60 128
-98 180 -151 205 -38 18 -102 21 -111 6z"/>
<path d="M8224 5714 c-7 -3 -9 -23 -6 -54 4 -44 2 -50 -14 -50 -18 -1 -18 -1
-1 -14 16 -12 18 -26 15 -95 -3 -72 -1 -82 15 -87 10 -3 19 -4 20 -2 6 10 -5
308 -11 307 -4 0 -12 -3 -18 -5z"/>
<path d="M9764 5714 c-7 -3 -9 -23 -6 -54 4 -47 3 -50 -19 -50 l-23 0 22 -16
c19 -13 22 -24 22 -84 0 -42 -5 -72 -12 -76 -8 -5 -6 -10 8 -15 38 -15 39 -12
36 146 -2 85 -6 155 -10 154 -4 0 -12 -3 -18 -5z"/>
<path d="M7456 5599 c30 -55 54 -103 54 -106 0 -3 10 -21 22 -40 l21 -35 13
23 c7 13 9 26 4 29 -4 3 -33 56 -64 118 -48 96 -60 112 -80 112 -23 0 -23 -3
30 -101z"/>
<path d="M7669 5693 c0 -5 -1 -70 -2 -145 l-2 -138 35 0 c22 0 30 3 22 9 -10
6 -12 40 -10 144 3 136 3 137 -19 137 -13 0 -23 -3 -24 -7z"/>
<path d="M8689 5672 c9 -31 6 -236 -4 -252 -4 -6 8 -10 31 -10 30 0 35 3 26
12 -8 8 -12 52 -12 133 0 81 4 125 12 133 9 9 4 12 -24 12 -35 0 -36 -1 -29
-28z"/>
<path d="M9208 5563 c2 -104 0 -138 -10 -144 -8 -6 0 -9 22 -9 l35 0 0 145 0
145 -25 0 -25 0 3 -137z"/>
<path d="M9872 5683 c5 -26 38 -29 38 -4 0 15 -6 21 -21 21 -14 0 -19 -5 -17
-17z"/>
<path d="M11110 5676 c0 -2 25 -22 54 -45 66 -49 109 -108 131 -182 26 -85 27
-87 32 -67 8 32 -26 123 -66 180 -43 60 -151 141 -151 114z"/>
<path d="M11010 5622 c0 -4 20 -18 45 -31 71 -38 149 -141 191 -255 16 -44 16
-50 2 -60 -14 -10 -9 -16 35 -41 77 -43 169 -139 210 -220 44 -90 60 -162 56
-257 l-4 -76 35 15 c19 8 43 17 53 20 60 18 16 232 -75 369 -66 99 -225 225
-264 210 -8 -3 -14 0 -14 7 0 23 -69 170 -90 192 -11 12 -18 25 -15 28 3 4 3
5 0 3 -3 -1 -22 12 -41 31 -20 18 -53 43 -75 53 -42 22 -49 24 -49 12z"/>
<path d="M7933 5596 c16 -12 18 -26 15 -95 -3 -78 1 -91 30 -91 12 0 1 185
-12 192 -6 4 -20 8 -31 8 -19 -1 -19 -1 -2 -14z"/>
<path d="M8459 5594 c16 -12 22 -23 18 -41 -3 -18 0 -23 12 -21 40 8 11 78
-33 78 -20 0 -20 -1 3 -16z"/>
<path d="M8825 5510 c0 -93 1 -100 20 -100 20 0 21 12 15 188 0 6 -8 12 -17
12 -16 0 -18 -11 -18 -100z"/>
<path d="M8937 5600 c33 -13 43 -42 43 -119 0 -66 2 -71 21 -71 15 0 19 4 15
16 -3 9 -6 46 -6 84 0 79 -14 100 -63 99 -29 0 -30 -1 -10 -9z"/>
<path d="M9338 5510 c3 -86 6 -100 20 -100 15 0 17 10 14 76 -4 64 -2 77 14
90 17 12 17 13 2 8 -12 -4 -18 -1 -18 10 0 9 -8 16 -17 16 -16 0 -18 -10 -15
-100z"/>
<path d="M9450 5599 c36 -14 40 -26 40 -111 0 -69 2 -78 18 -78 17 0 18 8 14
88 -2 48 -9 93 -14 100 -6 6 -27 12 -47 11 -34 0 -35 -1 -11 -10z"/>
<path d="M9875 5510 c0 -93 1 -100 20 -100 19 0 20 6 17 100 -3 86 -6 100 -20
100 -15 0 -17 -13 -17 -100z"/>
<path d="M10124 5597 c15 -11 17 -26 14 -95 -3 -81 1 -92 33 -92 5 0 9 42 9
94 0 100 -3 106 -53 106 -19 0 -20 -1 -3 -13z"/>
<path d="M7816 5569 c-36 -43 -35 -91 3 -130 23 -22 38 -29 68 -28 l38 1 -30
9 c-16 4 -37 19 -47 31 -20 26 -24 98 -8 129 16 28 5 23 -24 -12z"/>
<path d="M8086 5569 c-36 -43 -35 -91 3 -130 23 -22 38 -29 68 -28 l38 1 -32
9 c-53 15 -82 104 -53 160 16 28 5 23 -24 -12z"/>
<path d="M8355 5575 c-19 -18 -25 -35 -25 -69 0 -37 5 -48 31 -70 33 -28 91
-35 119 -15 12 8 9 9 -12 5 -38 -8 -74 11 -93 49 -19 41 -19 62 -1 98 18 33
12 34 -19 2z"/>
<path d="M9625 5575 c-25 -24 -34 -81 -19 -120 9 -23 57 -45 96 -44 l33 0 -35
12 c-25 9 -40 23 -54 51 -18 37 -18 43 -4 83 9 24 14 43 11 43 -2 0 -15 -11
-28 -25z"/>
<path d="M10011 5576 c-12 -13 -25 -42 -28 -65 -5 -35 -2 -44 25 -71 24 -24
38 -30 69 -29 22 1 29 3 16 6 -59 11 -94 109 -57 161 20 29 3 28 -25 -2z"/>
<path d="M10940 5583 c14 -9 57 -49 96 -88 52 -51 81 -91 108 -146 20 -42 36
-83 36 -91 0 -8 -18 -23 -40 -33 l-40 -18 30 -18 c34 -21 81 -82 117 -154 14
-27 42 -69 62 -91 45 -51 127 -195 143 -249 6 -22 12 -41 14 -43 1 -1 13 2 27
9 17 8 26 22 31 48 31 187 -58 383 -226 501 -39 28 -77 50 -85 50 -7 0 -13 5
-13 11 0 23 -62 140 -101 188 -44 57 -146 141 -169 140 -10 0 -6 -6 10 -16z"/>
<path d="M10781 5492 c58 -37 249 -275 249 -310 0 -6 -12 -13 -27 -17 -26 -7
-22 -9 37 -27 36 -11 83 -32 105 -47 69 -47 69 -46 54 -20 -19 37 -118 129
-132 124 -6 -3 -22 13 -34 34 -46 81 -197 252 -245 277 -48 25 -53 15 -7 -14z"/>
<path d="M10645 5473 c6 -5 36 -26 67 -47 77 -51 180 -161 209 -224 28 -60 59
-75 35 -17 -36 85 -118 175 -218 238 -59 38 -108 64 -93 50z"/>
<path d="M7420 5430 c-9 -17 -8 -20 9 -20 14 0 18 5 14 20 -3 11 -7 20 -9 20
-2 0 -8 -9 -14 -20z"/>
<path d="M10605 5394 c89 -59 185 -172 220 -262 16 -38 15 -40 -9 -77 -14 -21
-26 -45 -25 -54 0 -13 2 -12 12 3 56 91 118 115 199 76 100 -46 154 -116 204
-262 14 -40 28 -102 31 -138 5 -60 3 -68 -20 -95 -23 -27 -31 -30 -89 -30 -44
0 -76 7 -106 22 -35 17 -40 18 -28 4 24 -27 112 -54 154 -48 20 3 67 19 104
36 60 28 68 34 74 66 12 68 -50 309 -92 357 -30 33 -122 98 -167 118 -71 31
-107 34 -157 11 l-45 -20 -39 75 c-43 83 -128 176 -200 218 -58 34 -72 34 -21
0z"/>
<path d="M10452 5331 c41 -37 88 -97 88 -115 0 -3 -18 7 -41 24 -53 38 -140
70 -187 69 -37 -1 -37 -1 9 -9 101 -17 238 -112 270 -188 56 -130 79 -281 54
-362 l-8 -25 24 23 c21 20 24 31 22 95 -1 40 -11 103 -22 142 -11 38 -18 71
-16 73 3 4 59 -86 69 -113 7 -18 8 -18 17 -3 11 19 -41 115 -95 177 -18 20
-43 58 -56 84 -31 61 -117 154 -150 162 -20 5 -16 -1 22 -34z"/>
<path d="M10225 5256 c-34 -15 -82 -63 -72 -72 3 -4 18 8 33 25 15 18 41 38
58 46 17 7 27 14 21 14 -5 0 -23 -6 -40 -13z"/>
<path d="M10336 5226 c66 -45 146 -171 169 -268 15 -59 -13 -24 -43 55 -55
142 -131 218 -202 202 -36 -8 -50 -25 -20 -25 33 0 107 -77 141 -146 61 -123
47 -244 -31 -269 l-35 -12 32 -16 c35 -18 59 -23 31 -6 -25 14 -23 33 1 19 64
-34 131 15 155 113 4 17 11 25 18 21 16 -10 4 40 -32 135 -37 95 -105 177
-175 210 -64 30 -67 26 -9 -13z m3 -40 c25 -19 77 -109 100 -169 22 -60 27
-154 11 -192 -11 -25 -12 -18 -11 75 1 57 -4 88 -22 130 -35 84 -76 141 -108
153 -16 6 -29 15 -29 20 0 10 39 -1 59 -17z m181 -329 c0 -15 -28 -57 -50 -74
-18 -15 -84 -17 -75 -3 3 5 12 7 20 4 21 -9 49 11 70 50 20 36 35 47 35 23z"/>
<path d="M10203 5215 c-22 -19 -24 -24 -10 -25 9 0 17 4 17 10 0 5 12 16 28
24 18 10 22 15 10 16 -9 0 -30 -11 -45 -25z"/>
<path d="M10868 5060 l-33 -31 39 26 c22 14 52 25 70 24 20 -1 24 -3 11 -6
-40 -8 -75 -26 -75 -36 0 -7 4 -7 12 1 7 7 31 12 55 12 37 0 48 -6 83 -41 37
-39 120 -186 120 -214 0 -7 7 -19 17 -26 15 -13 16 -11 9 15 -25 99 -97 207
-197 292 -27 24 -76 17 -111 -16z"/>
<path d="M10981 5017 c71 -48 121 -160 125 -282 4 -98 4 -94 14 -70 46 107
-70 375 -162 375 -6 0 4 -10 23 -23z"/>
<path d="M10755 4950 c3 -5 13 -10 21 -10 25 0 89 -67 117 -122 36 -71 42
-122 23 -178 -17 -49 -14 -59 9 -40 88 73 -35 360 -155 360 -12 0 -18 -4 -15
-10z"/>
<path d="M11314 4880 c4 -14 16 -63 27 -110 11 -46 19 -101 17 -122 -4 -41 -4
-41 59 -17 l22 8 -33 83 c-34 85 -103 205 -92 158z"/>
<path d="M10552 4843 c-18 -60 -70 -113 -113 -114 l-34 -2 35 -6 c78 -16 133
34 128 115 l-3 49 -13 -42z"/>
<path d="M11197 4678 c-10 -33 -27 -64 -39 -72 -32 -23 -82 -30 -109 -15 -22
11 -23 11 -10 -4 9 -11 29 -17 56 -17 71 0 132 67 123 136 -3 25 -6 21 -21
-28z"/>
<path d="M11148 4650 c-23 -33 -34 -40 -60 -40 -28 -1 -30 -2 -15 -11 23 -13
49 -5 80 27 24 24 42 64 29 64 -4 -1 -19 -19 -34 -40z"/>
</g>
</svg>
